<svg width="143" height="48" viewBox="0 0 143 48" fill="none" xmlns="http://www.w3.org/2000/svg">
<path d="M51.233 34.9252C52.0975 33.4211 52.764 31.8412 53.2373 30.1902C53.8168 28.3567 54.1984 26.5544 54.4495 24.9256C55.0339 21.094 52.8944 18.228 49.417 18.228H34.0973C24.0951 18.228 25.0948 29.3135 33.6868 29.3135H41.4094C40.6946 30.791 39.6514 32.1438 38.2653 33.3766C35.3289 35.9933 31.8274 37.2616 27.558 37.2616H27.0991C27.0991 37.2616 27.0605 37.2616 27.0412 37.2616V47.9332C29.514 47.9777 31.2043 47.724 31.2043 47.724C36.9372 47.061 41.989 44.7958 46.2632 40.9686C48.0406 39.3754 49.5136 37.6532 50.6872 35.8153C50.8514 35.5705 51.0253 35.2901 51.2088 34.9564C51.2136 34.9475 51.2185 34.9386 51.2233 34.9297L51.233 34.9252Z" fill="#1C252D"/>
<path d="M26.5294 37.2616C22.2599 37.2616 18.7584 35.9889 15.822 33.3766C12.9242 30.7955 11.5139 27.7204 11.5139 23.9777C11.5139 20.2351 12.9242 17.1645 15.822 14.5833C18.5266 12.1758 21.7093 10.9075 25.5296 10.7205H26.5294C29.9777 10.7205 32.8176 11.4281 35.1841 12.8833C35.4497 13.0436 39.6516 15.2553 42.8633 12.2915C46.075 9.32763 44.2156 6.04337 42.1437 4.6104C38.5745 2.14498 34.677 0.79657 30.34 0.262544C30.3303 0.262544 30.3255 0.262544 30.3158 0.258094C27.7996 -0.160226 22.8781 0.240293 22.8781 0.240293C17.1453 0.903375 12.0935 3.16853 7.81923 7.00017C2.63217 11.6417 0 17.3558 0 23.9777C0 30.5996 2.63217 36.3137 7.82406 40.9642C12.0983 44.7914 17.1501 47.0565 22.883 47.7196C22.883 47.7196 24.5782 47.9777 27.0461 47.9288V37.2572C27.0461 37.2572 27.0075 37.2572 26.9882 37.2572H26.5294V37.2616Z" fill="#2E3E4B"/>
<path opacity="0.2" d="M22.8781 47.7196C22.8781 47.7196 24.5733 47.9777 27.0413 47.9288C29.5141 47.9733 31.2045 47.7196 31.2045 47.7196C36.9373 47.0566 41.9891 44.7914 46.2634 40.9642C48.0407 39.371 49.5137 37.6488 50.6873 35.8109C50.8515 35.5661 51.0254 35.2857 51.2138 34.952C51.2186 34.9431 51.2234 34.9342 51.2283 34.9253C52.0928 33.4211 52.7593 31.8413 53.2326 30.1902C53.8121 28.3568 54.1937 26.5544 54.4448 24.9256C54.4931 24.6097 54.5173 24.3026 54.5269 24H26.935C27.1331 26.6924 29.5092 29.3091 33.6821 29.3091H41.4047C40.6899 30.7866 39.6467 32.1394 38.2606 33.3721C35.3242 35.9889 31.8227 37.2572 27.5532 37.2572H27.0944C27.0944 37.2572 27.0558 37.2572 27.0365 37.2572C27.0171 37.2572 26.9978 37.2572 26.9785 37.2572H26.5197C22.2503 37.2572 18.7488 35.9844 15.8123 33.3721C12.9194 30.7955 11.5091 27.7293 11.5043 23.9955H0C0.00482966 30.6086 2.637 36.3182 7.82406 40.9598C12.0983 44.7869 17.1501 47.0521 22.883 47.7152L22.8781 47.7196Z" fill="#1C252D"/>
<path d="M128.88 20.8893H116.655C114.933 20.8893 113.537 19.4964 113.537 17.7786C113.537 16.0608 114.933 14.6679 116.655 14.6679H116.178C117.9 14.6679 119.297 13.275 119.297 11.5572C119.297 9.83945 117.9 8.44653 116.178 8.44653H100.647C98.925 8.44653 97.5285 9.83945 97.5285 11.5572C97.5285 13.275 98.925 14.6679 100.647 14.6679H100.13C98.4074 14.6679 97.011 16.0608 97.011 17.7786C97.011 19.4964 98.4074 20.8893 100.13 20.8893H100.647C98.925 20.8893 97.5285 22.2822 97.5285 24C97.5285 25.7178 98.925 27.1107 100.647 27.1107C98.925 27.1107 97.5285 28.5036 97.5285 30.2214C97.5285 31.9392 98.925 33.3321 100.647 33.3321H97.939C96.2168 33.3321 94.8203 34.725 94.8203 36.4428C94.8203 38.1606 96.2168 39.5535 97.939 39.5535H114.509C116.231 39.5535 117.628 38.1606 117.628 36.4428C117.628 34.725 116.231 33.3321 114.509 33.3321H108.392C106.67 33.3321 105.274 31.9392 105.274 30.2214C105.274 28.5036 106.67 27.1107 108.392 27.1107H128.88C130.602 27.1107 131.999 25.7178 131.999 24C131.999 22.2822 130.602 20.8893 128.88 20.8893Z" fill="#1C252D"/>
<path d="M125.266 33.3321H123.473C121.75 33.3321 120.354 34.725 120.354 36.4428C120.354 38.1606 121.75 39.5535 123.473 39.5535H125.266C126.988 39.5535 128.385 38.1606 128.385 36.4428C128.385 34.725 126.988 33.3321 125.266 33.3321Z" fill="#1C252D"/>
<path opacity="0.2" d="M125.266 33.3321H123.473C121.75 33.3321 120.354 34.725 120.354 36.4428C120.354 38.1606 121.75 39.5535 123.473 39.5535H125.266C126.988 39.5535 128.385 38.1606 128.385 36.4428C128.385 34.725 126.988 33.3321 125.266 33.3321Z" fill="#1C252D"/>
<path d="M139.369 20.8893H137.576C135.854 20.8893 134.457 22.2822 134.457 24C134.457 25.7178 135.854 27.1107 137.576 27.1107H139.369C141.091 27.1107 142.488 25.7178 142.488 24C142.488 22.2822 141.091 20.8893 139.369 20.8893Z" fill="#1C252D"/>
<path d="M98.2869 7.01354C93.562 2.35861 87.7754 0 81.0875 0C74.3995 0 68.6129 2.35861 63.8881 7.01354C59.1365 11.6907 56.7317 17.3959 56.7317 23.9777C56.7317 30.5596 59.1409 36.3137 63.8881 40.9909C68.6129 45.6458 74.3995 48.0045 81.0875 48.0045C87.7754 48.0045 93.562 45.6458 98.2869 40.9909C103.038 36.3137 105.443 30.5908 105.443 23.9777C105.443 17.3647 103.034 11.6907 98.2869 7.01354ZM90.6174 24.8277L81.373 40.9108L72.1732 24.8277C71.5575 23.5194 71.2051 22.0642 71.2051 20.5244C71.2051 14.9127 75.7648 10.3601 81.3953 10.3601C87.0258 10.3601 91.5856 14.9082 91.5856 20.5244C91.5856 22.0642 91.2331 23.5194 90.6174 24.8277Z" fill="#2E3E4B"/>
<path d="M81.3954 15.7226C79.0307 15.7226 77.1167 17.6362 77.1167 19.9948C77.1167 22.3534 79.0352 24.267 81.3954 24.267C83.7555 24.267 85.6785 22.3534 85.6785 19.9948C85.6785 17.6362 83.76 15.7226 81.3954 15.7226Z" fill="#1C252D"/>
<path opacity="0.2" d="M90.961 24C90.8584 24.2804 90.7468 24.5563 90.6175 24.8233L81.3731 40.9064L72.1733 24.8233C72.0484 24.5563 71.9368 24.2804 71.8297 24H56.7273C56.7318 30.6041 59.141 36.3182 63.8837 40.9865C68.6085 45.6414 74.3952 48 81.0831 48C87.771 48 93.5576 45.6414 98.2825 40.9865C98.7554 40.5192 99.2015 40.043 99.6254 39.5535H114.505C116.227 39.5535 117.623 38.1606 117.623 36.4428C117.623 34.725 116.227 33.3321 114.505 33.3321H108.388C106.666 33.3321 105.269 31.9392 105.269 30.2214C105.269 28.5036 106.666 27.1107 108.388 27.1107H128.876C130.598 27.1107 131.994 25.7178 131.994 24H90.9521H90.961Z" fill="#1C252D"/>
<path opacity="0.2" d="M134.457 24C134.457 25.7178 135.854 27.1107 137.576 27.1107H139.369C141.091 27.1107 142.488 25.7178 142.488 24H134.457Z" fill="#1C252D"/>
</svg>
